# xmcd CD database file
# Copyright (C) 1997 Ti Kan
# 
# Track frame offsets:
#     150
#     18350
#     51725
#     76287
#     105287
#     129750
#     164987
#     182262
#     237962
# 
# Disc length: 3431 seconds
# 
# Revision: 1
# Processed by: cddbd v1.4b41PL1 Copyright (c) Steve Scherf et al.
# Submitted via: DiscPlay 4.0.4
# 
DISCID=6a0d6509
DTITLE=Eric Clapton - Eric Clapton Live
DYEAR=1900
DGENRE=
TTITLE0=Tulsa Time
TTITLE1=Rambling on My Mind
TTITLE2=Knockin' on Heavens Door
TTITLE3=Cocaine
TTITLE4=Lay Down Sally
TTITLE5=Badge
TTITLE6=Sign Language
TTITLE7=Layla
TTITLE8=Next Time You See Her
EXTD=
EXTT0=
EXTT1=
EXTT2=
EXTT3=
EXTT4=
EXTT5=
EXTT6=
EXTT7=
EXTT8=
PLAYORDER=
